<svg version="1.1" viewBox="0.0 0.0 513.997375328084 221.2782152230971" fill="none" stroke="none" stroke-linecap="square" stroke-miterlimit="10" xmlns:xlink="http://www.w3.org/1999/xlink" xmlns="http://www.w3.org/2000/svg"><clipPath id="p.0"><path d="m0 0l513.9974 0l0 221.27821l-513.9974 0l0 -221.27821z" clip-rule="nonzero"/></clipPath><g clip-path="url(#p.0)"><path fill="#000000" fill-opacity="0.0" d="m0 0l513.9974 0l0 221.27821l-513.9974 0z" fill-rule="evenodd"/><defs><linearGradient id="p.1" gradientUnits="userSpaceOnUse" gradientTransform="matrix(22.627450528105648 0.0 0.0 22.627450528105648 0.0 0.0)" spreadMethod="pad" x1="22.671586638330897" y1="0.18553405848547708" x2="0.0441361108182082" y2="0.18537024664954732"><stop offset="0.0" stop-color="#aa9ad2"/><stop offset="0.42" stop-color="#b4a7d6"/><stop offset="1.0" stop-color="#d9d2e9"/></linearGradient></defs><path fill="url(#p.1)" d="m0.9986877 39.679188l0 0c0 -19.595629 15.885395 -35.481026 35.481026 -35.481026l441.03796 0c9.410156 0 18.434875 3.7381687 25.088867 10.392151c6.6539917 6.653983 10.39212 15.678721 10.39212 25.088875l0 141.91985c0 19.595627 -15.885376 35.481018 -35.480988 35.481018l-441.03796 0c-19.59563 0 -35.481026 -15.885391 -35.481026 -35.481018z" fill-rule="evenodd"/></g></svg>