<svg version="1.1" viewBox="0.0 0.0 300.0 300.0" fill="none" stroke="none" stroke-linecap="square" stroke-miterlimit="10" xmlns:xlink="http://www.w3.org/1999/xlink" xmlns="http://www.w3.org/2000/svg"><clipPath id="p.0"><path d="m0 0l300.0 0l0 300.0l-300.0 0l0 -300.0z" clip-rule="nonzero"/></clipPath><g clip-path="url(#p.0)"><path fill="#000000" fill-opacity="0.0" d="m0 0l300.0 0l0 300.0l-300.0 0z" fill-rule="evenodd"/><path fill="#ffd966" d="m255.95276 150.0l-42.756348 14.355408l0 -28.710815zm-31.040237 -70.73524l-19.47609 38.698257l-21.503052 -20.301346zm-74.91252 -29.29626l15.20517 40.36687l-30.41034 0zm-74.92233 29.29626l40.98896 18.396912l-21.50306 20.301346zm-31.030422 70.73524l42.756336 -14.355408l0 28.710815zm31.030422 70.72597l19.4859 -38.688995l21.50306 20.301346zm74.92233 29.305527l-15.20517 -40.366867l30.41034 0zm74.91252 -29.305527l-40.97914 -18.38765l21.503052 -20.301346zm-127.8889 -70.72597c0 -27.622932 23.71833 -50.015747 52.97638 -50.015747c29.258041 0 52.97638 22.392815 52.97638 50.015747c0 27.62294 -23.718338 50.015747 -52.97638 50.015747c-29.258049 0 -52.97638 -22.392807 -52.97638 -50.015747z" fill-rule="evenodd"/></g></svg>