<svg xmlns="http://www.w3.org/2000/svg" xmlns:xlink="http://www.w3.org/1999/xlink" version="1.1" width="256" height="256" viewBox="0 0 256 256" xml:space="preserve">
<g style="stroke: none; stroke-width: 0; stroke-dasharray: none; stroke-linecap: butt; stroke-linejoin: miter; stroke-miterlimit: 10; fill: none; fill-rule: nonzero; opacity: 1;" transform="translate(1.4065934065934016 1.4065934065934016) scale(2.81 2.81)">
	<path d="M 22.997 83.492 l 0 -44.584 c 0 -3.346 2.713 -6.059 6.059 -6.059 l 33.728 0 c 2.33 0 4.219 1.889 4.219 4.219 l 0 41.83 C 66.528 81.346 41.837 82.183 22.997 83.492 z" style="stroke: none; stroke-width: 1; stroke-dasharray: none; stroke-linecap: butt; stroke-linejoin: miter; stroke-miterlimit: 10; fill: rgb(31,159,133); fill-rule: nonzero; opacity: 1;" transform=" matrix(1 0 0 1 0 0) " stroke-linecap="round"/>
	<path d="M 29.005 32.848 l 0 49.176 l -6.008 1.468 l 0 -44.584 c 0 -3.346 2.713 -6.059 6.059 -6.059" style="stroke: none; stroke-width: 1; stroke-dasharray: none; stroke-linecap: butt; stroke-linejoin: miter; stroke-miterlimit: 10; fill: rgb(37,131,113); fill-rule: nonzero; opacity: 1;" transform=" matrix(1 0 0 1 0 0) " stroke-linecap="round"/>
	<path d="M 64.041 80.312 h 1.548 c 0.781 0 1.414 -0.633 1.414 -1.414 l 0 0 c 0 -0.781 -0.633 -1.414 -1.414 -1.414 l -36.584 0 c -3.318 0 -6.008 2.69 -6.008 6.008 v 0 c 0 3.318 2.69 6.008 6.008 6.008 l 36.584 0 c 0.781 0 1.414 -0.633 1.414 -1.414 l 0 0 c 0 -0.781 -0.633 -1.414 -1.414 -1.414 h -1.548 V 80.312 z" style="stroke: none; stroke-width: 1; stroke-dasharray: none; stroke-linecap: butt; stroke-linejoin: miter; stroke-miterlimit: 10; fill: rgb(37,131,113); fill-rule: nonzero; opacity: 1;" transform=" matrix(1 0 0 1 0 0) " stroke-linecap="round"/>
	<path d="M 22.997 83.992 c -0.276 0 -0.5 -0.224 -0.5 -0.5 l 0 -44.585 c 0 -3.617 2.942 -6.559 6.559 -6.559 h 33.728 c 2.602 0 4.719 2.117 4.719 4.72 v 41.83 c 0 0.276 -0.224 0.5 -0.5 0.5 s -0.5 -0.224 -0.5 -0.5 v -41.83 c 0 -2.051 -1.668 -3.72 -3.719 -3.72 H 29.056 c -3.065 0 -5.559 2.494 -5.559 5.559 l 0 44.585 C 23.497 83.769 23.273 83.992 22.997 83.992 z" style="stroke: none; stroke-width: 1; stroke-dasharray: none; stroke-linecap: butt; stroke-linejoin: miter; stroke-miterlimit: 10; fill: rgb(0,0,0); fill-rule: nonzero; opacity: 1;" transform=" matrix(1 0 0 1 0 0) " stroke-linecap="round"/>
	<path d="M 35.994 60.362 l 20.432 0 c 1.095 0 1.982 -0.887 1.982 -1.982 v -12.3 c 0 -1.095 -0.887 -1.982 -1.982 -1.982 l -20.432 0 c -1.095 0 -1.982 0.887 -1.982 1.982 l 0 12.3 C 34.011 59.474 34.899 60.362 35.994 60.362 z" style="stroke: none; stroke-width: 1; stroke-dasharray: none; stroke-linecap: butt; stroke-linejoin: miter; stroke-miterlimit: 10; fill: rgb(78,222,193); fill-rule: nonzero; opacity: 1;" transform=" matrix(1 0 0 1 0 0) " stroke-linecap="round"/>
	<path d="M 29.38 86.672 l 35.948 0 v -6.36 l -35.948 0 c -1.756 0 -3.18 1.424 -3.18 3.18 v 0 C 26.2 85.248 27.624 86.672 29.38 86.672 z" style="stroke: none; stroke-width: 1; stroke-dasharray: none; stroke-linecap: butt; stroke-linejoin: miter; stroke-miterlimit: 10; fill: rgb(159,227,213); fill-rule: nonzero; opacity: 1;" transform=" matrix(1 0 0 1 0 0) " stroke-linecap="round"/>
	<path d="M 65.589 90 H 29.005 c -3.589 0 -6.508 -2.919 -6.508 -6.508 s 2.919 -6.509 6.508 -6.509 h 36.584 c 1.056 0 1.914 0.858 1.914 1.914 c 0 0.975 -0.731 1.781 -1.675 1.899 v 5.39 c 0.943 0.118 1.675 0.925 1.675 1.899 C 67.503 89.142 66.645 90 65.589 90 z M 29.005 77.983 c -3.037 0 -5.508 2.472 -5.508 5.509 S 25.968 89 29.005 89 h 36.584 c 0.504 0 0.914 -0.41 0.914 -0.914 s -0.41 -0.914 -0.914 -0.914 h -0.261 c -0.276 0 -0.5 -0.224 -0.5 -0.5 v -6.36 c 0 -0.276 0.224 -0.5 0.5 -0.5 h 0.261 c 0.504 0 0.914 -0.41 0.914 -0.914 s -0.41 -0.914 -0.914 -0.914 H 29.005 z" style="stroke: none; stroke-width: 1; stroke-dasharray: none; stroke-linecap: butt; stroke-linejoin: miter; stroke-miterlimit: 10; fill: rgb(0,0,0); fill-rule: nonzero; opacity: 1;" transform=" matrix(1 0 0 1 0 0) " stroke-linecap="round"/>
	<path d="M 29.005 77.983 c -0.276 0 -0.5 -0.224 -0.5 -0.5 V 44.097 c 0 -0.276 0.224 -0.5 0.5 -0.5 s 0.5 0.224 0.5 0.5 v 33.387 C 29.505 77.76 29.281 77.983 29.005 77.983 z" style="stroke: none; stroke-width: 1; stroke-dasharray: none; stroke-linecap: butt; stroke-linejoin: miter; stroke-miterlimit: 10; fill: rgb(0,0,0); fill-rule: nonzero; opacity: 1;" transform=" matrix(1 0 0 1 0 0) " stroke-linecap="round"/>
	<path d="M 65.328 87.172 H 29.38 c -2.029 0 -3.68 -1.65 -3.68 -3.68 s 1.651 -3.681 3.68 -3.681 h 35.948 c 0.276 0 0.5 0.224 0.5 0.5 v 6.36 C 65.828 86.948 65.604 87.172 65.328 87.172 z M 29.38 80.812 c -1.478 0 -2.68 1.202 -2.68 2.681 c 0 1.478 1.202 2.68 2.68 2.68 h 35.448 v -5.36 H 29.38 z" style="stroke: none; stroke-width: 1; stroke-dasharray: none; stroke-linecap: butt; stroke-linejoin: miter; stroke-miterlimit: 10; fill: rgb(0,0,0); fill-rule: nonzero; opacity: 1;" transform=" matrix(1 0 0 1 0 0) " stroke-linecap="round"/>
	<path d="M 56.425 61.361 H 35.994 c -1.645 0 -2.982 -1.338 -2.982 -2.982 v -12.3 c 0 -1.645 1.338 -2.982 2.982 -2.982 h 20.431 c 1.645 0 2.982 1.338 2.982 2.982 v 12.3 C 59.407 60.023 58.069 61.361 56.425 61.361 z M 35.994 45.097 c -0.542 0 -0.982 0.441 -0.982 0.982 v 12.3 c 0 0.542 0.441 0.982 0.982 0.982 h 20.431 c 0.542 0 0.982 -0.44 0.982 -0.982 v -12.3 c 0 -0.542 -0.44 -0.982 -0.982 -0.982 H 35.994 z" style="stroke: none; stroke-width: 1; stroke-dasharray: none; stroke-linecap: butt; stroke-linejoin: miter; stroke-miterlimit: 10; fill: rgb(0,0,0); fill-rule: nonzero; opacity: 1;" transform=" matrix(1 0 0 1 0 0) " stroke-linecap="round"/>
	<path d="M 58.407 66.879 H 34.011 c -0.552 0 -1 -0.447 -1 -1 s 0.448 -1 1 -1 h 24.396 c 0.553 0 1 0.447 1 1 S 58.96 66.879 58.407 66.879 z" style="stroke: none; stroke-width: 1; stroke-dasharray: none; stroke-linecap: butt; stroke-linejoin: miter; stroke-miterlimit: 10; fill: rgb(0,0,0); fill-rule: nonzero; opacity: 1;" transform=" matrix(1 0 0 1 0 0) " stroke-linecap="round"/>
	<path d="M 58.407 72.804 H 34.011 c -0.552 0 -1 -0.447 -1 -1 s 0.448 -1 1 -1 h 24.396 c 0.553 0 1 0.447 1 1 S 58.96 72.804 58.407 72.804 z" style="stroke: none; stroke-width: 1; stroke-dasharray: none; stroke-linecap: butt; stroke-linejoin: miter; stroke-miterlimit: 10; fill: rgb(0,0,0); fill-rule: nonzero; opacity: 1;" transform=" matrix(1 0 0 1 0 0) " stroke-linecap="round"/>
	<path d="M 29.005 38.998 c -0.552 0 -1 -0.448 -1 -1 v -5.149 c 0 -0.552 0.448 -1 1 -1 s 1 0.448 1 1 v 5.149 C 30.005 38.55 29.557 38.998 29.005 38.998 z" style="stroke: none; stroke-width: 1; stroke-dasharray: none; stroke-linecap: butt; stroke-linejoin: miter; stroke-miterlimit: 10; fill: rgb(0,0,0); fill-rule: nonzero; opacity: 1;" transform=" matrix(1 0 0 1 0 0) " stroke-linecap="round"/>
	<path d="M 62.623 67.575 l 0 -44.584 c 0 -3.346 -2.713 -6.059 -6.059 -6.059 l -33.728 0 c -2.33 0 -4.219 1.889 -4.219 4.219 l 0 41.83 C 19.092 65.43 43.782 66.267 62.623 67.575 z" style="stroke: none; stroke-width: 1; stroke-dasharray: none; stroke-linecap: butt; stroke-linejoin: miter; stroke-miterlimit: 10; fill: rgb(236,167,66); fill-rule: nonzero; opacity: 1;" transform=" matrix(1 0 0 1 0 0) " stroke-linecap="round"/>
	<path d="M 56.614 16.932 l 0 49.176 l 6.008 1.468 l 0 -44.584 c 0 -3.346 -2.713 -6.059 -6.059 -6.059" style="stroke: none; stroke-width: 1; stroke-dasharray: none; stroke-linecap: butt; stroke-linejoin: miter; stroke-miterlimit: 10; fill: rgb(200,140,53); fill-rule: nonzero; opacity: 1;" transform=" matrix(1 0 0 1 0 0) " stroke-linecap="round"/>
	<path d="M 21.579 64.395 H 20.03 c -0.781 0 -1.414 -0.633 -1.414 -1.414 l 0 0 c 0 -0.781 0.633 -1.414 1.414 -1.414 l 36.584 0 c 3.318 0 6.008 2.69 6.008 6.008 v 0 c 0 3.318 -2.69 6.008 -6.008 6.008 l -36.584 0 c -0.781 0 -1.414 -0.633 -1.414 -1.414 v 0 c 0 -0.781 0.633 -1.414 1.414 -1.414 h 1.548 L 21.579 64.395 z" style="stroke: none; stroke-width: 1; stroke-dasharray: none; stroke-linecap: butt; stroke-linejoin: miter; stroke-miterlimit: 10; fill: rgb(200,140,53); fill-rule: nonzero; opacity: 1;" transform=" matrix(1 0 0 1 0 0) " stroke-linecap="round"/>
	<path d="M 62.623 68.075 c -0.276 0 -0.5 -0.224 -0.5 -0.5 V 22.991 c 0 -3.065 -2.494 -5.56 -5.56 -5.56 H 22.836 c -2.051 0 -3.72 1.668 -3.72 3.72 v 41.83 c 0 0.276 -0.224 0.5 -0.5 0.5 s -0.5 -0.224 -0.5 -0.5 v -41.83 c 0 -2.603 2.117 -4.72 4.72 -4.72 h 33.728 c 3.617 0 6.56 2.942 6.56 6.56 v 44.584 C 63.123 67.852 62.899 68.075 62.623 68.075 z" style="stroke: none; stroke-width: 1; stroke-dasharray: none; stroke-linecap: butt; stroke-linejoin: miter; stroke-miterlimit: 10; fill: rgb(0,0,0); fill-rule: nonzero; opacity: 1;" transform=" matrix(1 0 0 1 0 0) " stroke-linecap="round"/>
	<path d="M 56.239 70.755 l -35.948 0 l 0 -6.36 l 35.948 0 c 1.756 0 3.18 1.424 3.18 3.18 v 0 C 59.419 69.332 57.996 70.755 56.239 70.755 z" style="stroke: none; stroke-width: 1; stroke-dasharray: none; stroke-linecap: butt; stroke-linejoin: miter; stroke-miterlimit: 10; fill: rgb(245,205,148); fill-rule: nonzero; opacity: 1;" transform=" matrix(1 0 0 1 0 0) " stroke-linecap="round"/>
	<path d="M 56.614 74.084 H 20.03 c -1.055 0 -1.914 -0.858 -1.914 -1.914 c 0 -0.975 0.732 -1.781 1.675 -1.899 v -5.39 c -0.943 -0.118 -1.675 -0.925 -1.675 -1.899 c 0 -1.056 0.859 -1.914 1.914 -1.914 h 36.584 c 3.589 0 6.509 2.919 6.509 6.508 S 60.203 74.084 56.614 74.084 z M 20.03 71.256 c -0.504 0 -0.914 0.41 -0.914 0.914 s 0.41 0.914 0.914 0.914 h 36.584 c 3.037 0 5.509 -2.472 5.509 -5.509 s -2.472 -5.508 -5.509 -5.508 H 20.03 c -0.504 0 -0.914 0.41 -0.914 0.914 s 0.41 0.914 0.914 0.914 h 0.261 c 0.276 0 0.5 0.224 0.5 0.5 v 6.36 c 0 0.276 -0.224 0.5 -0.5 0.5 H 20.03 z" style="stroke: none; stroke-width: 1; stroke-dasharray: none; stroke-linecap: butt; stroke-linejoin: miter; stroke-miterlimit: 10; fill: rgb(0,0,0); fill-rule: nonzero; opacity: 1;" transform=" matrix(1 0 0 1 0 0) " stroke-linecap="round"/>
	<path d="M 56.614 62.067 c -0.276 0 -0.5 -0.224 -0.5 -0.5 V 28.18 c 0 -0.276 0.224 -0.5 0.5 -0.5 s 0.5 0.224 0.5 0.5 v 33.387 C 57.114 61.844 56.891 62.067 56.614 62.067 z" style="stroke: none; stroke-width: 1; stroke-dasharray: none; stroke-linecap: butt; stroke-linejoin: miter; stroke-miterlimit: 10; fill: rgb(0,0,0); fill-rule: nonzero; opacity: 1;" transform=" matrix(1 0 0 1 0 0) " stroke-linecap="round"/>
	<path d="M 56.239 71.256 H 20.291 c -0.276 0 -0.5 -0.224 -0.5 -0.5 v -6.36 c 0 -0.276 0.224 -0.5 0.5 -0.5 h 35.948 c 2.029 0 3.68 1.65 3.68 3.68 S 58.269 71.256 56.239 71.256 z M 20.791 70.256 h 35.448 c 1.478 0 2.68 -1.202 2.68 -2.681 c 0 -1.478 -1.202 -2.68 -2.68 -2.68 H 20.791 V 70.256 z" style="stroke: none; stroke-width: 1; stroke-dasharray: none; stroke-linecap: butt; stroke-linejoin: miter; stroke-miterlimit: 10; fill: rgb(0,0,0); fill-rule: nonzero; opacity: 1;" transform=" matrix(1 0 0 1 0 0) " stroke-linecap="round"/>
	<path d="M 56.614 23.082 c -0.553 0 -1 -0.448 -1 -1 v -5.15 c 0 -0.552 0.447 -1 1 -1 s 1 0.448 1 1 v 5.15 C 57.614 22.634 57.167 23.082 56.614 23.082 z" style="stroke: none; stroke-width: 1; stroke-dasharray: none; stroke-linecap: butt; stroke-linejoin: miter; stroke-miterlimit: 10; fill: rgb(0,0,0); fill-rule: nonzero; opacity: 1;" transform=" matrix(1 0 0 1 0 0) " stroke-linecap="round"/>
	<path d="M 27.377 51.144 l 0 -44.584 c 0 -3.346 2.713 -6.059 6.059 -6.059 l 33.728 0 c 2.33 0 4.219 1.889 4.219 4.219 l 0 41.83 C 70.908 48.998 46.218 49.835 27.377 51.144 z" style="stroke: none; stroke-width: 1; stroke-dasharray: none; stroke-linecap: butt; stroke-linejoin: miter; stroke-miterlimit: 10; fill: rgb(222,95,84); fill-rule: nonzero; opacity: 1;" transform=" matrix(1 0 0 1 0 0) " stroke-linecap="round"/>
	<path d="M 33.385 0.5 l 0 49.176 l -6.008 1.468 l 0 -44.584 c 0 -3.346 2.713 -6.059 6.059 -6.059" style="stroke: none; stroke-width: 1; stroke-dasharray: none; stroke-linecap: butt; stroke-linejoin: miter; stroke-miterlimit: 10; fill: rgb(182,73,64); fill-rule: nonzero; opacity: 1;" transform=" matrix(1 0 0 1 0 0) " stroke-linecap="round"/>
	<path d="M 68.421 47.964 h 1.548 c 0.781 0 1.414 -0.633 1.414 -1.414 v 0 c 0 -0.781 -0.633 -1.414 -1.414 -1.414 l -36.584 0 c -3.318 0 -6.008 2.69 -6.008 6.008 v 0 c 0 3.318 2.69 6.008 6.008 6.008 l 36.584 0 c 0.781 0 1.414 -0.633 1.414 -1.414 v 0 c 0 -0.781 -0.633 -1.414 -1.414 -1.414 h -1.548 L 68.421 47.964 z" style="stroke: none; stroke-width: 1; stroke-dasharray: none; stroke-linecap: butt; stroke-linejoin: miter; stroke-miterlimit: 10; fill: rgb(182,73,64); fill-rule: nonzero; opacity: 1;" transform=" matrix(1 0 0 1 0 0) " stroke-linecap="round"/>
	<path d="M 27.377 51.644 c -0.276 0 -0.5 -0.224 -0.5 -0.5 V 6.559 C 26.877 2.942 29.82 0 33.437 0 h 33.728 c 2.603 0 4.72 2.117 4.72 4.719 V 46.55 c 0 0.276 -0.224 0.5 -0.5 0.5 s -0.5 -0.224 -0.5 -0.5 V 4.719 c 0 -2.051 -1.669 -3.719 -3.72 -3.719 H 33.437 c -3.065 0 -5.559 2.494 -5.559 5.559 v 44.584 C 27.877 51.42 27.654 51.644 27.377 51.644 z" style="stroke: none; stroke-width: 1; stroke-dasharray: none; stroke-linecap: butt; stroke-linejoin: miter; stroke-miterlimit: 10; fill: rgb(0,0,0); fill-rule: nonzero; opacity: 1;" transform=" matrix(1 0 0 1 0 0) " stroke-linecap="round"/>
	<path d="M 40.374 28.013 l 20.432 0 c 1.095 0 1.982 -0.887 1.982 -1.982 v -12.3 c 0 -1.095 -0.887 -1.982 -1.982 -1.982 l -20.432 0 c -1.095 0 -1.982 0.887 -1.982 1.982 v 12.3 C 38.392 27.126 39.279 28.013 40.374 28.013 z" style="stroke: none; stroke-width: 1; stroke-dasharray: none; stroke-linecap: butt; stroke-linejoin: miter; stroke-miterlimit: 10; fill: rgb(240,184,180); fill-rule: nonzero; opacity: 1;" transform=" matrix(1 0 0 1 0 0) " stroke-linecap="round"/>
	<path d="M 33.761 54.324 l 35.948 0 v -6.36 l -35.948 0 c -1.756 0 -3.18 1.424 -3.18 3.18 v 0 C 30.581 52.9 32.004 54.324 33.761 54.324 z" style="stroke: none; stroke-width: 1; stroke-dasharray: none; stroke-linecap: butt; stroke-linejoin: miter; stroke-miterlimit: 10; fill: rgb(240,184,180); fill-rule: nonzero; opacity: 1;" transform=" matrix(1 0 0 1 0 0) " stroke-linecap="round"/>
	<path d="M 69.97 57.651 H 33.385 c -3.588 0 -6.508 -2.919 -6.508 -6.508 s 2.919 -6.508 6.508 -6.508 H 69.97 c 1.056 0 1.914 0.859 1.914 1.915 c 0 0.975 -0.731 1.781 -1.675 1.899 v 5.389 c 0.943 0.118 1.675 0.925 1.675 1.899 C 71.884 56.793 71.025 57.651 69.97 57.651 z M 33.385 45.635 c -3.037 0 -5.508 2.471 -5.508 5.508 s 2.471 5.508 5.508 5.508 H 69.97 c 0.504 0 0.914 -0.41 0.914 -0.914 s -0.41 -0.914 -0.914 -0.914 h -0.261 c -0.276 0 -0.5 -0.224 -0.5 -0.5 v -6.359 c 0 -0.276 0.224 -0.5 0.5 -0.5 h 0.261 c 0.504 0 0.914 -0.41 0.914 -0.914 s -0.41 -0.915 -0.914 -0.915 H 33.385 z" style="stroke: none; stroke-width: 1; stroke-dasharray: none; stroke-linecap: butt; stroke-linejoin: miter; stroke-miterlimit: 10; fill: rgb(0,0,0); fill-rule: nonzero; opacity: 1;" transform=" matrix(1 0 0 1 0 0) " stroke-linecap="round"/>
	<path d="M 33.385 45.635 c -0.276 0 -0.5 -0.224 -0.5 -0.5 V 11.749 c 0 -0.276 0.224 -0.5 0.5 -0.5 s 0.5 0.224 0.5 0.5 v 33.387 C 33.885 45.412 33.662 45.635 33.385 45.635 z" style="stroke: none; stroke-width: 1; stroke-dasharray: none; stroke-linecap: butt; stroke-linejoin: miter; stroke-miterlimit: 10; fill: rgb(0,0,0); fill-rule: nonzero; opacity: 1;" transform=" matrix(1 0 0 1 0 0) " stroke-linecap="round"/>
	<path d="M 69.709 54.823 H 33.761 c -2.029 0 -3.68 -1.65 -3.68 -3.68 s 1.651 -3.68 3.68 -3.68 h 35.948 c 0.276 0 0.5 0.224 0.5 0.5 v 6.359 C 70.209 54.6 69.985 54.823 69.709 54.823 z M 33.761 48.464 c -1.478 0 -2.68 1.202 -2.68 2.68 s 1.202 2.68 2.68 2.68 h 35.448 v -5.359 H 33.761 z" style="stroke: none; stroke-width: 1; stroke-dasharray: none; stroke-linecap: butt; stroke-linejoin: miter; stroke-miterlimit: 10; fill: rgb(0,0,0); fill-rule: nonzero; opacity: 1;" transform=" matrix(1 0 0 1 0 0) " stroke-linecap="round"/>
	<path d="M 60.806 28.513 H 40.374 c -1.369 0 -2.482 -1.113 -2.482 -2.482 v -12.3 c 0 -1.369 1.114 -2.482 2.482 -2.482 h 20.432 c 1.369 0 2.482 1.114 2.482 2.482 v 12.3 C 63.288 27.4 62.175 28.513 60.806 28.513 z M 40.374 12.249 c -0.817 0 -1.482 0.665 -1.482 1.482 v 12.3 c 0 0.817 0.665 1.482 1.482 1.482 h 20.432 c 0.817 0 1.482 -0.665 1.482 -1.482 v -12.3 c 0 -0.817 -0.665 -1.482 -1.482 -1.482 H 40.374 z" style="stroke: none; stroke-width: 1; stroke-dasharray: none; stroke-linecap: butt; stroke-linejoin: miter; stroke-miterlimit: 10; fill: rgb(0,0,0); fill-rule: nonzero; opacity: 1;" transform=" matrix(1 0 0 1 0 0) " stroke-linecap="round"/>
	<path d="M 62.788 34.031 H 38.392 c -0.276 0 -0.5 -0.224 -0.5 -0.5 s 0.224 -0.5 0.5 -0.5 h 24.396 c 0.276 0 0.5 0.224 0.5 0.5 S 63.064 34.031 62.788 34.031 z" style="stroke: none; stroke-width: 1; stroke-dasharray: none; stroke-linecap: butt; stroke-linejoin: miter; stroke-miterlimit: 10; fill: rgb(0,0,0); fill-rule: nonzero; opacity: 1;" transform=" matrix(1 0 0 1 0 0) " stroke-linecap="round"/>
	<path d="M 62.788 39.955 H 38.392 c -0.276 0 -0.5 -0.224 -0.5 -0.5 s 0.224 -0.5 0.5 -0.5 h 24.396 c 0.276 0 0.5 0.224 0.5 0.5 S 63.064 39.955 62.788 39.955 z" style="stroke: none; stroke-width: 1; stroke-dasharray: none; stroke-linecap: butt; stroke-linejoin: miter; stroke-miterlimit: 10; fill: rgb(0,0,0); fill-rule: nonzero; opacity: 1;" transform=" matrix(1 0 0 1 0 0) " stroke-linecap="round"/>
	<path d="M 33.386 6.149 c -0.276 0 -0.5 -0.224 -0.5 -0.5 V 0.5 c 0 -0.276 0.224 -0.5 0.5 -0.5 s 0.5 0.224 0.5 0.5 v 5.149 C 33.886 5.926 33.662 6.149 33.386 6.149 z" style="stroke: none; stroke-width: 1; stroke-dasharray: none; stroke-linecap: butt; stroke-linejoin: miter; stroke-miterlimit: 10; fill: rgb(0,0,0); fill-rule: nonzero; opacity: 1;" transform=" matrix(1 0 0 1 0 0) " stroke-linecap="round"/>
</g>
</svg>